PathFileType	4	(X/Y/Z)	C:/Users/beibeiliu/ov580/test_trc/capture2\sequence.14_training_dense_right.trc
DataRate	CameraRate	NumFrames	NumMarkers	Units	OrigDataRate	OrigDataStartFrame	OrigNumFrames
120	120	12	19	mm	120	301	400
Frame#	Time	ThumbCMC			ThumbMCP			ThumbIP			ThumbTip			IndexMCP			IndexPIP			IndexTip			MiddleMCP			MiddlePIP			MiddleTip			RingMCP			RingPIP			RingTip			PinkyMCP			PinkyPIP			PinkyTip			BackHand1			BackHand2			BackHand3	
		X0	Y0	Z0	X1	Y1	Z1	X2	Y2	Z2	X3	Y3	Z3	X4	Y4	Z4	X5	Y5	Z5	X6	Y6	Z6	X7	Y7	Z7	X8	Y8	Z8	X9	Y9	Z9	X10	Y10	Z10	X11	Y11	Z11	X12	Y12	Z12	X13	Y13	Z13	X14	Y14	Z14	X15	Y15	Z15	X16	Y16	Z16	X17	Y17	Z17	X18	Y18	Z18	
300	2.5	165.556	40.2856	-14.464	153.723	52.6791	-50.9183	144.121	45.701	-79.5577	129.848	28.8266	-89.5835	183.111	-12.1287	-65.8944	186.938	-20.206	-89.415	187.037	-30.0701	-115.312	156.827	-8.75367	-79.1497	146.867	14.6238	-95.7885	138.366	34.733	-63.3776	135.79	-10.5238	-73.636	126.509	17.0606	-85.2126	132.37	32.9337	-57.1038	120.36	-27.5977	-55.866	115.701	-38.0127	-77.0117	114.69	-49.1996	-92.6432	143.345	-16.4518	-17.9244	140.144	-6.00295	10.4254	170.826	2.72492	-5.93379	
301	2.50833	168.509	42.5398	-14.4408	153.767	48.1927	-50.31	146.247	45.5497	-78.1714	130.302	23.3768	-90.5866	182.902	-14.6201	-63.583	186.186	-23.5982	-88.7168	183.261	-33.7979	-114.178	154.299	-11.4791	-79.9337	145.374	14.8321	-94.0336	140.963	33.625	-61.0885	136.423	-10.1922	-75.3924	129.296	14.7562	-85.945	135.53	31.8957	-55.32	122.714	-26.7336	-56.3594	115.727	-35.2093	-73.219	112.373	-53.608	-95.6391	138.936	-15.5909	-15.0086	136.339	-5.73768	14.5665	165.476	-1.20911	-7.40683	
302	2.51667	165.026	37.401	-15.0899	154.224	45.6456	-49.1511	147.729	41.6539	-77.2212	132.835	25.2946	-88.65	181.979	-15.6857	-61.1984	182.487	-27.913	-88.2593	182.226	-36.7105	-114.248	155.55	-12.1311	-75.3004	144.298	13.1094	-92.6683	141.61	32.6431	-61.0444	133.734	-13.6595	-76.0656	126.807	14.5797	-84.9524	131.085	30.4548	-55.2414	119.763	-27.6536	-55.9037	113.04	-37.2308	-75.4987	110.211	-51.296	-94.182	139.946	-17.5077	-16.7703	134.893	-4.54208	14.5878	165.011	-2.62544	-6.09464	
303	2.525	166.113	37.4355	-14.6071	155.17	43.3823	-51.1937	149.055	40.3287	-79.9943	134.551	25.2304	-93.2093	178.011	-19.4487	-59.2569	184.798	-30.583	-85.8377	182.107	-39.0172	-107.916	152.324	-15.2111	-78.0818	147.914	13.8832	-92.6263	143.715	31.0025	-62.773	134.181	-15.482	-71.0111	125.829	13.2461	-85.9269	132.157	30.524	-56.0273	114.926	-30.8153	-56.705	111.784	-36.7262	-74.0362	113.283	-53.9292	-94.6669	137.448	-18.0185	-18.1765	132.318	-5.62004	11.5775	164.749	-1.72279	-4.23243	
304	2.53333	163.443	34.2099	-14.1009	155.511	41.2876	-49.4955	148.979	35.4738	-75.896	134.63	21.8248	-89.7648	180.11	-23.8308	-60.7719	182.096	-33.2125	-81.7657	177.739	-43.2584	-109.424	154.262	-17.0939	-76.2722	145.548	8.58311	-91.8391	145.749	29.7419	-58.5802	134.772	-15.8826	-74.3701	128.577	13.3466	-85.2542	131.033	28.7686	-58.5196	112.466	-31.4928	-55.4751	110.519	-37.4895	-72.3538	105.415	-52.8466	-91.1121	133.762	-19.9321	-16.3686	129.018	-8.20434	11.0816	163.663	-4.53329	-0.972172	
305	2.54167	162.633	32.7934	-12.5705	155.527	41.7731	-46.5681	148.858	31.4228	-76.1021	133.273	16.1755	-89.2453	176.006	-25.1337	-56.9811	181.071	-36.2007	-80.0203	178.696	-46.582	-105.28	152.492	-20.0985	-71.839	146.796	7.55368	-89.834	144.674	26.0169	-60.4642	132.066	-18.4708	-74.0252	128.787	6.30612	-86.5739	132.27	27.1	-58.7966	109	-29.602	-52.6744	106.699	-41.8338	-75.7022	108.242	-53.5565	-90.8299	129.343	-19.8908	-12.3289	123.244	-9.79691	12.4254	160.11	-4.74172	-0.347252	
306	2.55	162.898	30.5828	-12.9218	155.826	39.0895	-48.7714	150.539	31.579	-77.8487	134.75	16.4193	-89.3787	177.879	-30.3097	-57.0626	177.133	-40.6228	-79.0006	175.048	-50.8855	-103.501	150.329	-23.4506	-72.2714	146.885	4.99774	-89.045	141.909	22.281	-59.4617	130.766	-21.7631	-70.019	128.268	4.11839	-84.898	128.206	25.0144	-56.4849	111.53	-33.2917	-54.1816	106.059	-40.5082	-71.1908	104.147	-60.3444	-91.3161	128.485	-20.898	-10.618	119.406	-7.64132	14.9863	153.908	-9.03516	-1.50165	
307	2.55833	160.044	27.7899	-11.5656	153.769	33.6825	-46.399	150.564	27.9606	-72.9663	134.439	9.23661	-92.4767	170.272	-34.8076	-55.0666	179.431	-45.1454	-79.5325	177.691	-52.6651	-100.902	150.878	-26.5904	-71.3644	145.847	0.954118	-87.5647	142.749	20.1378	-58.9847	126.883	-25.9732	-70.0016	129.22	0.581527	-84.0075	130.285	21.9745	-56.2932	105.404	-34.6243	-52.9941	104.772	-44.5607	-73.7345	105.274	-60.7906	-90.1586	122.976	-23.5629	-12.3123	121.583	-9.37629	12.3734	153.202	-11.1477	1.55867	
308	2.56667	157.906	23.371	-9.94315	155.176	32.7313	-42.879	151.479	25.7218	-71.1689	135.556	7.61954	-87.9736	168.47	-36.6472	-50.4603	172.379	-49.8989	-77.1225	172.495	-57.1059	-96.6403	146.387	-29.9035	-70.2999	143.484	-6.69022	-87.0549	141.868	15.7098	-56.5546	125.979	-28.44	-69.9041	124.55	-2.55804	-83.4825	131.477	18.1799	-58.9502	107.665	-33.3072	-49.5486	102.695	-44.5567	-70.5904	101.425	-63.082	-90.7064	121.282	-25.1463	-10.6905	116.78	-12.2384	14.1809	150.964	-11.858	2.68726	
309	2.575	157.582	20.972	-8.30497	156.515	26.2848	-46.8822	152.244	19.4344	-75.1937	135.19	4.87728	-85.6384	171.375	-40.3569	-50.1637	171.703	-52.6257	-72.1258	171.078	-60.6899	-97.6864	144.928	-33.1533	-65.2036	142.471	-5.11768	-84.8181	141.006	12.3453	-54.5999	126.887	-29.4065	-69.7389	124.901	-3.50785	-83.3636	129.313	17.1863	-54.3579	102.919	-36.4465	-51.4176	101.255	-45.2492	-68.6553	98.9761	-61.4681	-88.3585	120.735	-25.707	-6.29285	112.484	-12.6237	17.0721	147.761	-17.218	3.69261	
310	2.58333	159.684	18.6332	-9.50352	154.385	23.6269	-42.8215	154.564	20.1357	-71.6282	136.039	2.2672	-85.2903	168.593	-43.9098	-49.6144	170.352	-55.321	-70.189	167.688	-63.1616	-95.1694	144.858	-33.5862	-65.9931	141.984	-9.22555	-84.7504	144.468	11.1634	-52.9152	122.42	-31.8835	-65.5366	128.984	-3.92163	-81.292	132.747	14.0289	-53.9069	100.727	-38.8138	-51.5829	102.523	-47.3138	-73.2975	96.8488	-61.8872	-93.1045	120.166	-29.5856	-8.31437	113.698	-12.9109	16.4211	147.181	-18.0451	3.394	
311	2.59167	157.677	15.3097	-7.17343	157.123	24.5942	-40.2636	153.944	16.7687	-66.6539	138.571	2.58136	-85.8318	165.207	-45.9222	-47.0683	169.247	-57.5555	-69.2066	169.751	-66.6716	-99.3813	146.723	-34.6426	-67.141	143.125	-9.12861	-83.7555	142.907	9.08793	-52.1963	125.684	-32.1043	-65.2716	127.491	-3.95736	-81.272	132.09	13.0607	-52.1709	99.2182	-36.4874	-49.6564	95.7941	-47.1509	-71.5233	97.5405	-60.4269	-92.9568	117.411	-28.7503	-8.55254	110.965	-15.7116	15.9988	144.69	-19.1413	5.56909	
